<svg data-v-653498c4="" width="36" height="36" viewBox="0 0 36 36" fill="none"
    xmlns="http://www.w3.org/2000/svg">
    <path
        d="M18 36C27.9411 36 36 27.9411 36 18C36 8.05887 27.9411 0 18 0C8.05887 0 0 8.05887 0 18C0 27.9411 8.05887 36 18 36Z"
        fill="#F5B300"></path>
    <path fill-rule="evenodd" clip-rule="evenodd"
        d="M16.1852 9.61381C16.1266 9.78661 16.068 9.84421 15.8922 9.78661C15.0564 9.56251 14.2096 9.36901 13.3636 9.17641H13.3635C12.9598 9.0853 12.5565 8.9923 12.1537 8.89741C12.0658 9.21511 11.9898 9.50941 11.9138 9.80371C11.8378 10.098 11.7618 10.3923 11.674 10.71C11.6154 10.8252 11.674 10.8828 11.7912 10.8828C11.8831 10.9053 11.9772 10.9278 12.0733 10.9512C12.4667 11.0457 12.8905 11.1474 13.3144 11.2869C13.8416 11.4597 14.1346 11.979 14.0174 12.4398C13.3144 15.4395 12.5527 18.3816 11.7912 21.3237C11.7326 21.7278 11.381 21.9582 10.9124 21.843C10.5023 21.7854 10.0336 21.6693 9.6235 21.5541C9.4477 21.5541 9.3892 21.5541 9.3305 21.7278C9.1548 22.1886 8.9205 22.7079 8.6861 23.2272C8.6275 23.3424 8.5836 23.4432 8.5397 23.5449C8.4957 23.6457 8.4517 23.7465 8.3931 23.8617C9.7992 24.2082 11.1467 24.5538 12.4941 24.9003C12.4941 24.9678 12.4741 25.0155 12.4574 25.0551C12.4457 25.083 12.4356 25.1073 12.4356 25.1307C12.1427 26.0541 11.9083 27.0342 11.674 28.0152C11.6154 28.1304 11.6154 28.188 11.7912 28.2456C12.3771 28.3608 12.9629 28.4769 13.5488 28.6497C13.7036 28.7001 13.722 28.6614 13.7642 28.5732H13.7643C13.7702 28.5602 13.7764 28.5472 13.783 28.5345C13.8416 28.2744 13.9149 28.0152 13.9882 27.7551C14.0614 27.4959 14.1346 27.2367 14.1932 26.9766C14.2518 26.7174 14.325 26.4573 14.3982 26.1981C14.4715 25.938 14.5447 25.6788 14.6033 25.4196C15.1306 25.5348 15.5993 25.65 16.068 25.7652C16.1524 25.8066 16.1455 25.8489 16.1351 25.9119C16.1311 25.9362 16.1266 25.9641 16.1266 25.9965C15.8336 26.919 15.5992 27.9 15.3649 28.8801C15.3063 28.9953 15.3063 29.0538 15.4821 29.1114C15.7458 29.169 16.024 29.241 16.3022 29.313H16.3023C16.5806 29.385 16.8589 29.457 17.1225 29.5146C17.4029 29.6253 17.4149 29.5776 17.4668 29.3706L17.474 29.3418C17.5912 28.8801 17.7084 28.404 17.8256 27.9288C17.9426 27.4527 18.0598 26.9766 18.177 26.5149C18.2356 26.3421 18.3528 26.2845 18.5286 26.3421C19.7003 26.5149 20.872 26.631 22.1023 26.4573C23.0397 26.3421 23.8599 25.938 24.5043 25.1883C25.0316 24.5538 25.3246 23.8617 25.5589 23.0544C25.7347 22.4199 25.7933 21.7278 25.6761 21.0933C25.4417 20.2851 24.9731 19.6506 24.2701 19.1313C24.1529 19.0449 24.0357 18.9729 23.9185 18.9009C23.8013 18.8289 23.6841 18.7569 23.5669 18.6705C23.6356 18.6705 23.6841 18.6507 23.7244 18.6336C23.7528 18.6219 23.7771 18.612 23.8014 18.612C24.27 18.4392 24.7387 18.2088 25.0902 17.8623C25.5589 17.4006 25.7932 16.8246 25.969 16.1901C26.2033 15.2667 26.1447 14.3442 25.6175 13.4784C25.2074 12.9015 24.6802 12.4398 24.0943 12.0942L22.1609 11.2284C21.9851 11.1708 21.9266 11.1132 21.9851 10.9404C22.1023 10.6515 22.1609 10.3635 22.2195 10.0755V10.0746C22.3952 9.38251 22.571 8.69041 22.7468 7.94071C22.7174 7.94071 22.7028 7.92631 22.6882 7.91191C22.6735 7.89751 22.6589 7.88311 22.6296 7.88311C22.3519 7.80841 22.0852 7.74451 21.8246 7.68241C21.4804 7.59961 21.1469 7.52041 20.8134 7.42141C20.6962 7.36381 20.6376 7.42141 20.6376 7.53661L20.462 8.22961C20.2276 8.97931 20.0518 9.67141 19.876 10.4211C19.8565 10.44 19.837 10.4661 19.8175 10.4913C19.7784 10.5426 19.7393 10.5939 19.7003 10.5939C19.466 10.5363 19.2171 10.4787 18.9681 10.4211H18.9679C18.719 10.3635 18.4699 10.3059 18.2356 10.2483C18.2942 10.1331 18.2942 10.0755 18.2942 10.017C18.4114 9.55621 18.5286 9.08011 18.6457 8.60401C18.7629 8.12791 18.8801 7.65271 18.9973 7.19101C19.0559 7.07581 19.0559 7.01821 18.8801 6.95971C18.2942 6.84451 17.767 6.72931 17.1811 6.55651C17.0053 6.49891 16.9467 6.55651 16.8881 6.72931C16.771 7.21981 16.6538 7.69591 16.5366 8.17111C16.4196 8.64721 16.3023 9.12331 16.1852 9.61381ZM15.0134 22.9968C15.072 22.9968 15.1306 23.0544 15.1306 23.0544C15.2772 23.0904 15.4253 23.1282 15.5745 23.166H15.5751C16.3799 23.3694 17.2199 23.5827 18.0599 23.6313C18.7629 23.6889 19.4074 23.6889 20.0519 23.4576C21.1649 23.112 21.6337 21.6702 20.9892 20.7468C20.6963 20.2851 20.2276 19.9971 19.7589 19.7082C18.7353 19.1484 17.5461 18.9144 16.4057 18.6903L16.3023 18.6705C16.1421 18.6174 16.1279 18.6606 16.0823 18.8001C16.0779 18.8136 16.0732 18.828 16.068 18.8433C16.0094 19.1313 15.9361 19.4058 15.863 19.6794C15.7897 19.9539 15.7164 20.2275 15.6578 20.5164C15.5244 20.9763 15.4098 21.4362 15.2926 21.9069C15.2042 22.2624 15.1142 22.6242 15.0134 22.9968ZM20.579 17.1126C20.3447 17.1702 20.0518 17.2278 19.9346 17.2278C19.2546 17.2278 18.6673 17.1369 18.0605 17.0433C17.8264 17.0058 17.5919 16.9713 17.3569 16.9398C17.2397 16.911 17.1372 16.8822 17.0346 16.8534C16.9321 16.8246 16.8296 16.7958 16.7124 16.7661C16.5952 16.7085 16.5366 16.6509 16.5952 16.5357C16.9467 15.3243 17.2397 14.1705 17.5325 12.9591C17.5911 12.7863 17.6497 12.7287 17.8255 12.7863C18 12.8322 18.1722 12.8754 18.3425 12.9186C19.03 13.0923 19.6873 13.2588 20.3447 13.536C20.872 13.7673 21.3993 14.1129 21.6922 14.6322C22.2781 15.6132 21.6922 16.8822 20.579 17.1126Z"
        fill="white"></path>
</svg>