<svg data-v-653498c4="" width="36" height="36" viewBox="0 0 36 36" fill="none"
    xmlns="http://www.w3.org/2000/svg">
    <path
        d="M18 36C27.9411 36 36 27.9411 36 18C36 8.05887 27.9411 0 18 0C8.05887 0 0 8.05887 0 18C0 27.9411 8.05887 36 18 36Z"
        fill="#366BF4"></path>
    <path
        d="M16.9517 23.5035C20.0955 23.5602 23.1811 23.6178 26.3249 23.7321C26.2085 24.1911 26.0921 24.5925 26.0339 24.9939C25.8592 25.5672 25.6846 26.0829 25.5681 26.6562C25.5099 26.9424 25.3934 27 25.1024 27H10.0818C10.6058 24.9939 11.1298 23.1021 11.6538 21.0951C10.8386 21.3822 10.14 21.6684 9.325 22.0131C9.5578 21.1527 9.7907 20.4075 10.0818 19.6047C10.0818 19.4904 10.2565 19.4328 10.3728 19.4328C10.8968 19.2042 11.4791 19.0314 12.003 18.8028C12.1777 18.7452 12.3523 18.5733 12.3523 18.4014C13.1675 15.4206 13.9825 12.4398 14.7975 9.459C14.8558 9.1143 14.9722 9 15.3797 9H20.6777C20.0372 11.3499 19.4551 13.7007 18.8147 16.1658C19.7462 15.7644 20.6195 15.4206 21.6092 15.0768C21.4927 15.5349 21.3182 15.9363 21.2599 16.3377C21.1434 17.2548 20.6195 17.7705 19.6879 18C19.2804 18.1143 18.8729 18.2862 18.4654 18.459C18.3489 18.5157 18.1742 18.6876 18.116 18.8028C17.7085 20.3499 17.301 21.8412 16.9517 23.3883V23.5035Z"
        fill="white"></path>
</svg>