<svg data-v-653498c4="" width="36" height="36" viewBox="0 0 36 36" fill="none"
    xmlns="http://www.w3.org/2000/svg">
    <path
        d="M18 36C27.9411 36 36 27.9411 36 18C36 8.05887 27.9411 0 18 0C8.05887 0 0 8.05887 0 18C0 27.9411 8.05887 36 18 36Z"
        fill="#00A478"></path>
    <path d="M15.9894 17.4429V13.3308H10.4715V9.72632H25.8894V13.3812H20.3715V17.4429H15.9894Z"
        fill="white"></path>
    <path fill-rule="evenodd" clip-rule="evenodd"
        d="M8.1 17.7921C8.1 16.4808 12.5118 15.4125 18 15.4125C23.4882 15.4125 27.9 16.4808 27.9 17.7921C27.9 19.1034 23.4882 20.1717 18 20.1717C12.5118 20.1717 8.1 19.1034 8.1 17.7921ZM27.0792 17.7921C26.7201 17.3061 23.7447 15.8013 18 15.8013C12.2553 15.8013 9.2799 17.2575 8.9208 17.7921C9.2799 18.2772 12.2553 19.0062 18 19.0062C23.796 19.0062 26.7201 18.2772 27.0792 17.7921Z"
        fill="white"></path>
    <path
        d="M20.3715 18.7127V15.8696C19.6497 15.8183 18.8766 15.7679 18.1035 15.7679C17.3817 15.7679 16.6608 15.7679 15.9903 15.8183V18.6614C16.6248 18.7613 17.3898 18.7802 18.1035 18.7802C18.8163 18.7802 19.6497 18.7631 20.3715 18.7127ZM18 20.3777C17.2782 20.3777 16.659 20.3579 15.9894 20.3075V27.9017H20.3202V20.2859C19.5984 20.3372 18.7731 20.3777 18 20.3777Z"
        fill="white"></path>
</svg>