<svg data-v-653498c4="" width="36" height="36" viewBox="0 0 36 36" fill="none"
    xmlns="http://www.w3.org/2000/svg">
    <path
        d="M18 36C27.9411 36 36 27.9411 36 18C36 8.05887 27.9411 0 18 0C8.05887 0 0 8.05887 0 18C0 27.9411 8.05887 36 18 36Z"
        fill="#F4FBFF"></path>
    <path d="M18 22.8825V14.8824L25.9999 18.4122L18 22.8825Z" fill="#131313"></path>
    <path d="M18 22.8825V14.8824L10 18.4122L18 22.8825Z" fill="#2F2F2F"></path>
    <path d="M18 14.8824V5.00037L25.9999 18.4122L18 14.8824Z" fill="#2A2A2A"></path>
    <path d="M18 14.8824V5.00037L10 18.4122L18 14.8824Z" fill="#777879"></path>
    <path d="M18 31.0005L26 19.9998L18 24.4863V31.0005Z" fill="#292A2A"></path>
    <path d="M18 31.0005L10 19.9998L18 24.4863V31.0005Z" fill="#777879"></path>
</svg>